<svg width="100%" height="100%" id="svg" viewBox="0 0 1440 590" xmlns="http://www.w3.org/2000/svg" class="transition duration-300 ease-in-out delay-150"><defs><linearGradient id="gradient" x1="50%" y1="100%" x2="50%" y2="0%"><stop offset="5%" stop-color="#0693e3"></stop><stop offset="95%" stop-color="#e6ffff"></stop></linearGradient></defs><path d="M 0,600 L 0,150 C 109.03349282296651,131.26315789473685 218.06698564593302,112.52631578947368 304,107 C 389.933014354067,101.47368421052632 452.76555023923447,109.15789473684211 529,134 C 605.2344497607655,158.8421052631579 694.8708133971293,200.84210526315786 813,221 C 931.1291866028707,241.15789473684214 1077.751196172249,239.47368421052633 1187,224 C 1296.248803827751,208.52631578947367 1368.1244019138755,179.26315789473682 1440,150 L 1440,600 L 0,600 Z" stroke="none" stroke-width="0" fill="url(#gradient)" fill-opacity="0.53" class="transition-all duration-300 ease-in-out delay-150 path-0"></path><defs><linearGradient id="gradient" x1="50%" y1="100%" x2="50%" y2="0%"><stop offset="5%" stop-color="#0693e3"></stop><stop offset="95%" stop-color="#e6ffff"></stop></linearGradient></defs><path d="M 0,600 L 0,350 C 122.22009569377991,365.0143540669856 244.44019138755982,380.02870813397124 325,361 C 405.5598086124402,341.97129186602876 444.4593301435407,288.8995215311005 534,276 C 623.5406698564593,263.1004784688995 763.7224880382776,290.37320574162675 880,304 C 996.2775119617224,317.62679425837325 1088.6507177033493,317.6076555023924 1178,323 C 1267.3492822966507,328.3923444976076 1353.6746411483255,339.1961722488038 1440,350 L 1440,600 L 0,600 Z" stroke="none" stroke-width="0" fill="url(#gradient)" fill-opacity="1" class="transition-all duration-300 ease-in-out delay-150 path-1"></path></svg>